<svg width="362" height="305" viewBox="0 0 362 305" fill="none" xmlns="http://www.w3.org/2000/svg">
<g clip-path="url(#clip0_9_91)">
<path fill-rule="evenodd" clip-rule="evenodd" d="M0 33.98C0 15.21 15.21 0 33.98 0H327.02C345.79 0 361 15.21 361 33.98V270.02C361 288.79 345.79 304 327.02 304H33.98C15.21 304 0 288.79 0 270.02V33.98Z" fill="#99D3CC"/>
<path fill-rule="evenodd" clip-rule="evenodd" d="M331.51 11.0601C341.69 11.0601 349.95 19.31 349.95 29.48V274.54C349.95 284.72 341.69 292.96 331.51 292.96H29.51C19.33 292.96 11.0699 284.72 11.0699 274.54V29.48C11.0699 19.31 19.33 11.0601 29.51 11.0601H331.51ZM331.51 0.0100098H29.51C13.22 0.0100098 0.0100098 13.2 0.0100098 29.48V274.54C0.0100098 290.82 13.22 304.01 29.51 304.01H331.51C347.8 304.01 361.01 290.82 361.01 274.54V29.48C361.01 13.2 347.8 0.0100098 331.51 0.0100098Z" fill="#99D3CC"/>
<path fill-rule="evenodd" clip-rule="evenodd" d="M128.01 12.01L89.01 12.08L89.3 51.01L128.01 12.01Z" fill="#F5F6F8"/>
<path fill-rule="evenodd" clip-rule="evenodd" d="M88.01 12.01H29.11C19.52 13.29 12.26 21.43 12.01 31.21L12.45 89.01L88.01 12.01Z" fill="#F5F6F8"/>
<path fill-rule="evenodd" clip-rule="evenodd" d="M148.01 12.01L128.01 12.05L128.19 31.01L148.01 12.01Z" fill="#F5F6F8"/>
<path d="M186.724 201.395H159.331C159.26 197.456 159.224 195.057 159.224 194.197C159.224 185.317 160.692 178.012 163.628 172.283C166.564 166.554 172.437 160.109 181.245 152.947C190.054 145.786 195.318 141.095 197.036 138.875C199.686 135.366 201.011 131.499 201.011 127.273C201.011 121.401 198.648 116.388 193.921 112.234C189.266 108.009 182.964 105.896 175.015 105.896C167.352 105.896 160.943 108.081 155.786 112.449C150.63 116.818 147.085 123.478 145.152 132.43L117.437 128.992C118.225 116.173 123.667 105.288 133.765 96.3359C143.934 87.3841 157.254 82.9082 173.726 82.9082C191.057 82.9082 204.842 87.4557 215.083 96.5508C225.324 105.574 230.445 116.102 230.445 128.133C230.445 134.793 228.547 141.095 224.751 147.039C221.027 152.983 213.006 161.076 200.689 171.316C194.315 176.616 190.34 180.877 188.765 184.1C187.261 187.322 186.581 193.087 186.724 201.395V201.395ZM159.331 242V211.814H189.517V242H159.331Z" fill="#6C4BC1"/>
</g>
<defs>
<clipPath id="clip0_9_91">
<rect width="361.01" height="304.01" fill="white"/>
</clipPath>
</defs>
</svg>
