<?xml version="1.0" encoding="UTF-8" standalone="no"?>
<!-- Created with Inkscape (http://www.inkscape.org/) -->

<svg
   width="20mm"
   height="12mm"
   viewBox="0 0 37.287735 24.727142"
   version="1.1"
   id="svg45"
   inkscape:version="1.1.1 (3bf5ae0d25, 2021-09-20)"
   sodipodi:docname="py-logo-text-dark.svg"
   xmlns:inkscape="http://www.inkscape.org/namespaces/inkscape"
   xmlns:sodipodi="http://sodipodi.sourceforge.net/DTD/sodipodi-0.dtd"
   xmlns:xlink="http://www.w3.org/1999/xlink"
   xmlns="http://www.w3.org/2000/svg"
   xmlns:svg="http://www.w3.org/2000/svg">
  <sodipodi:namedview
     id="namedview47"
     pagecolor="#505050"
     bordercolor="#eeeeee"
     borderopacity="1"
     inkscape:pageshadow="0"
     inkscape:pageopacity="0"
     inkscape:pagecheckerboard="0"
     inkscape:document-units="mm"
     showgrid="false"
     inkscape:zoom="4.192802"
     inkscape:cx="31.363275"
     inkscape:cy="54.021154"
     inkscape:window-width="1920"
     inkscape:window-height="1017"
     inkscape:window-x="-8"
     inkscape:window-y="-8"
     inkscape:window-maximized="1"
     inkscape:current-layer="g112" />
  <defs
     id="defs42">
    <linearGradient
       inkscape:collect="always"
       xlink:href="#linearGradient4689"
       id="linearGradient1478"
       gradientUnits="userSpaceOnUse"
       gradientTransform="matrix(0.05128898,0,0,0.05178414,84.075176,91.446307)"
       x1="26.648937"
       y1="20.603781"
       x2="135.66525"
       y2="114.39767" />
    <linearGradient
       id="linearGradient4689">
      <stop
         style="stop-color:#5a9fd4;stop-opacity:1;"
         offset="0"
         id="stop4691" />
      <stop
         style="stop-color:#306998;stop-opacity:1;"
         offset="1"
         id="stop4693" />
    </linearGradient>
    <linearGradient
       inkscape:collect="always"
       xlink:href="#linearGradient4671"
       id="linearGradient1475"
       gradientUnits="userSpaceOnUse"
       gradientTransform="matrix(0.05128898,0,0,0.05178414,84.075176,91.446307)"
       x1="150.96111"
       y1="192.35176"
       x2="112.03144"
       y2="137.27299" />
    <linearGradient
       id="linearGradient4671">
      <stop
         style="stop-color:#ffd43b;stop-opacity:1;"
         offset="0"
         id="stop4673" />
      <stop
         style="stop-color:#ffe873;stop-opacity:1"
         offset="1"
         id="stop4675" />
    </linearGradient>
  </defs>
  <g
     inkscape:label="Layer 1"
     inkscape:groupmode="layer"
     id="layer1"
     transform="translate(-80.594114,-82.590757)">
    <g
       id="g112">
      <path
         style="fill:url(#linearGradient1478);fill-opacity:1;stroke-width:0.0911736"
         d="m 90.449125,92.513337 c -0.417909,0.002 -0.817003,0.0376 -1.168164,0.0997 -1.034477,0.18276 -1.222298,0.56529 -1.222299,1.27074 v 0.93168 h 2.444597 v 0.31056 h -2.444597 -0.917435 c -0.710468,0 -1.332574,0.42703 -1.527161,1.23939 -0.224453,0.93115 -0.234409,1.51221 0,2.48449 0.173771,0.72372 0.588759,1.239393 1.299226,1.239393 H 87.7538 v -1.116883 c 0,-0.80688 0.698131,-1.51861 1.527161,-1.51861 h 2.441747 c 0.679696,0 1.222299,-0.55964 1.222298,-1.24224 v -2.32778 c 0,-0.66251 -0.558893,-1.16017 -1.222298,-1.27074 -0.419945,-0.0699 -0.855674,-0.10166 -1.273583,-0.0997 z m -1.32202,0.74933 c 0.25251,0 0.458718,0.20958 0.458718,0.46727 0,0.25678 -0.206208,0.46441 -0.458718,0.46441 -0.253415,0 -0.458718,-0.20763 -0.458718,-0.46441 0,-0.25769 0.205303,-0.46727 0.458718,-0.46727 z"
         id="path1948" />
      <path
         style="fill:url(#linearGradient1475);fill-opacity:1;stroke-width:0.0911736"
         d="m 93.249869,95.126037 v 1.08554 c 0,0.8416 -0.713517,1.54995 -1.527161,1.54995 h -2.441747 c -0.668835,0 -1.222298,0.57243 -1.222299,1.24224 v 2.327783 c 0,0.6625 0.57609,1.05218 1.222299,1.24224 0.773822,0.22754 1.515876,0.26866 2.441747,0 0.615437,-0.17819 1.222299,-0.53679 1.222298,-1.24224 v -0.93168 h -2.441747 v -0.31056 h 2.441747 1.222299 c 0.710468,0 0.975217,-0.495573 1.222297,-1.239393 0.255226,-0.76576 0.244366,-1.50216 0,-2.48449 -0.17558,-0.70728 -0.510925,-1.23939 -1.222297,-1.23939 z m -1.373305,5.894953 c 0.253415,0 0.458718,0.20764 0.458718,0.46442 0,0.25768 -0.205303,0.46726 -0.458718,0.46726 -0.25251,0 -0.458718,-0.20958 -0.458718,-0.46726 0,-0.25678 0.206207,-0.46442 0.458718,-0.46442 z"
         id="path1950" />
      <path
         d="m 114.38612,84.651327 a 1.1652416,1.0302972 0 0 1 1.16525,1.03028 v 18.545353 a 1.1652416,1.0302972 0 0 1 -1.16525,1.03029 H 84.08984 a 1.1652416,1.0302972 0 0 1 -1.165245,-1.03029 V 85.681607 a 1.1652416,1.0302972 0 0 1 1.165245,-1.03028 z m -30.29628,-2.06057 a 3.4957252,3.0908919 0 0 0 -3.495726,3.09085 v 18.545353 a 3.4957252,3.0908919 0 0 0 3.495726,3.09094 h 30.29628 a 3.4957252,3.0908919 0 0 0 3.49573,-3.09094 V 85.681607 a 3.4957252,3.0908919 0 0 0 -3.49573,-3.09085 z"
         id="path2"
         style="fill:#262626;fill-opacity:1;stroke-width:1.66008;stroke-miterlimit:4;stroke-dasharray:none" />
      <path
         d="m 98.502455,100.10575 c 4e-6,-0.569023 0.461284,-1.030293 1.0303,-1.030293 h 12.363565 c 1.37377,0 1.37377,2.060653 0,2.060653 H 99.532755 c -0.569043,0 -1.030335,-0.46132 -1.0303,-1.03036 z"
         id="path4"
         style="fill:#262626;fill-opacity:1;stroke-width:1.461;stroke-miterlimit:4;stroke-dasharray:none"
         sodipodi:nodetypes="ccsscc" />
      <path
         d="m 98.502455,94.954327 c 4e-6,-0.56902 0.461284,-1.03029 1.0303,-1.03029 h 12.363565 c 1.37377,0 1.37377,2.06065 0,2.06065 H 99.532755 c -0.569043,0 -1.030335,-0.46132 -1.0303,-1.03036 z"
         id="path4-89"
         style="fill:#262626;fill-opacity:1;stroke-width:1.461;stroke-miterlimit:4;stroke-dasharray:none"
         sodipodi:nodetypes="ccsscc" />
      <path
         d="m 86.124146,89.802827 c 5e-6,-0.56902 0.599441,-1.03029 1.33888,-1.03029 h 16.066514 c 1.78522,0 1.78522,2.06065 0,2.06065 H 87.463026 c -0.739475,0 -1.338926,-0.46132 -1.33888,-1.03036 z"
         id="path4-8"
         style="fill:#262626;fill-opacity:1;stroke-width:1.66548;stroke-miterlimit:4;stroke-dasharray:none"
         sodipodi:nodetypes="ssssss" />
    </g>
  </g>
</svg>
