<?xml version="1.0" encoding="UTF-8"?>
<svg width="25mm" height="16.5mm" version="1.1" viewBox="0 0 55.932 37.091" xmlns="http://www.w3.org/2000/svg" xmlns:cc="http://creativecommons.org/ns#" xmlns:dc="http://purl.org/dc/elements/1.1/" xmlns:rdf="http://www.w3.org/1999/02/22-rdf-syntax-ns#">
 <g transform="translate(-86.526 -88.523)">
  <path d="m114.92 110.67c-0.41791 2e-3 -0.81701 0.0376-1.1682 0.0997-1.0345 0.18276-1.2223 0.56529-1.2223 1.2707v0.93167h2.4446v0.31056h-3.362c-0.71047 0-1.3326 0.42703-1.5272 1.2394-0.22445 0.93115-0.23441 1.5122 0 2.4845 0.17377 0.72372 0.58876 1.2394 1.2992 1.2394h0.84051v-1.1169c0-0.80688 0.69813-1.5186 1.5272-1.5186h2.4418c0.6797 0 1.2223-0.55964 1.2223-1.2422v-2.3278c0-0.6625-0.55889-1.1602-1.2223-1.2707-0.41994-0.0699-0.85567-0.10166-1.2736-0.0997zm-1.322 0.74933c0.25251 0 0.45872 0.20958 0.45872 0.46727 0 0.25677-0.20621 0.46441-0.45872 0.46441-0.25342 0-0.45872-0.20764-0.45872-0.46441 0-0.25769 0.2053-0.46727 0.45872-0.46727z" style="fill:#262626;opacity:.5;stroke-width:.091174"/>
  <path d="m117.72 113.28v1.0855c0 0.8416-0.71352 1.55-1.5272 1.55h-2.4418c-0.66883 0-1.2223 0.57243-1.2223 1.2422v2.3278c0 0.6625 0.57609 1.0522 1.2223 1.2422 0.77383 0.22754 1.5159 0.26866 2.4418 0 0.61544-0.17819 1.2223-0.53679 1.2223-1.2422v-0.93168h-2.4418v-0.31056h3.664c0.71047 0 0.97522-0.49557 1.2223-1.2394 0.25523-0.76576 0.24437-1.5022 0-2.4845-0.17558-0.70728-0.51092-1.2394-1.2223-1.2394zm-1.3733 5.895c0.25341 0 0.45871 0.20764 0.45871 0.46442 0 0.25768-0.2053 0.46726-0.45871 0.46726-0.25251 0-0.45872-0.20958-0.45872-0.46726 0-0.25678 0.20621-0.46442 0.45872-0.46442z" style="fill:#262626;opacity:.5;stroke-width:.091174"/>
  <path d="m138.86 102.81a1.1652 1.0303 0 0 1 1.1652 1.0303v18.545a1.1652 1.0303 0 0 1-1.1652 1.0303h-30.296a1.1652 1.0303 0 0 1-1.1652-1.0303v-18.545a1.1652 1.0303 0 0 1 1.1652-1.0303zm-30.296-2.0606a3.4957 3.0909 0 0 0-3.4957 3.0908v18.545a3.4957 3.0909 0 0 0 3.4957 3.0909h30.296a3.4957 3.0909 0 0 0 3.4957-3.0909v-18.545a3.4957 3.0909 0 0 0-3.4957-3.0908z" style="fill:#262626;opacity:.5;stroke-width:1.6601"/>
  <path d="m122.97 118.26c1e-5 -0.56902 0.46129-1.0303 1.0303-1.0303h12.364c1.3738 0 1.3738 2.0606 0 2.0606h-12.364c-0.56904 0-1.0303-0.46132-1.0303-1.0304z" style="fill:#262626;opacity:.5;stroke-width:1.461"/>
  <path d="m122.97 113.11c1e-5 -0.56902 0.46129-1.0303 1.0303-1.0303h12.364c1.3738 0 1.3738 2.0606 0 2.0606h-12.364c-0.56904 0-1.0303-0.46132-1.0303-1.0304z" style="fill:#262626;opacity:.5;stroke-width:1.461"/>
  <path d="m110.6 107.96c0-0.56902 0.59944-1.0303 1.3389-1.0303h16.067c1.7852 0 1.7852 2.0606 0 2.0606h-16.067c-0.73948 0-1.3389-0.46132-1.3389-1.0304z" style="fill:#262626;opacity:.5;stroke-width:1.6655"/>
 </g>
</svg>
