<?xml version="1.0" encoding="UTF-8" standalone="no"?>
<!-- Created with Inkscape (http://www.inkscape.org/) -->

<svg
   width="20mm"
   height="12mm"
   viewBox="0 0 37.287731 24.727113"
   version="1.1"
   id="svg45"
   inkscape:version="1.1.1 (3bf5ae0d25, 2021-09-20)"
   sodipodi:docname="py-logo-mono-opacitiy-50.svg"
   xmlns:inkscape="http://www.inkscape.org/namespaces/inkscape"
   xmlns:sodipodi="http://sodipodi.sourceforge.net/DTD/sodipodi-0.dtd"
   xmlns="http://www.w3.org/2000/svg"
   xmlns:svg="http://www.w3.org/2000/svg">
  <sodipodi:namedview
     id="namedview47"
     pagecolor="#505050"
     bordercolor="#eeeeee"
     borderopacity="1"
     inkscape:pageshadow="0"
     inkscape:pageopacity="0"
     inkscape:pagecheckerboard="0"
     inkscape:document-units="mm"
     showgrid="false"
     inkscape:zoom="4.192802"
     inkscape:cx="53.067137"
     inkscape:cy="48.297058"
     inkscape:window-width="1920"
     inkscape:window-height="1017"
     inkscape:window-x="-8"
     inkscape:window-y="-8"
     inkscape:window-maximized="1"
     inkscape:current-layer="g112"
     height="24.72714mm" />
  <defs
     id="defs42">
    <linearGradient
       id="linearGradient4689">
      <stop
         style="stop-color:#5a9fd4;stop-opacity:1;"
         offset="0"
         id="stop4691" />
      <stop
         style="stop-color:#306998;stop-opacity:1;"
         offset="1"
         id="stop4693" />
    </linearGradient>
    <linearGradient
       id="linearGradient4671">
      <stop
         style="stop-color:#ffd43b;stop-opacity:1;"
         offset="0"
         id="stop4673" />
      <stop
         style="stop-color:#ffe873;stop-opacity:1"
         offset="1"
         id="stop4675" />
    </linearGradient>
  </defs>
  <g
     inkscape:label="Layer 1"
     inkscape:groupmode="layer"
     id="layer1"
     transform="translate(-86.525907,-88.522547)">
    <g
       id="g112">
      <path
         style="opacity:0.5;fill:#262626;fill-opacity:1;stroke-width:0.0911736"
         d="m 96.380918,98.445122 c -0.417909,0.002 -0.817003,0.0376 -1.168164,0.0997 -1.034477,0.18276 -1.222298,0.565287 -1.222299,1.270731 v 0.931667 h 2.444597 v 0.31056 H 93.990455 93.07302 c -0.710468,0 -1.332574,0.42703 -1.527161,1.23939 -0.224453,0.93115 -0.234409,1.51221 0,2.48449 0.173771,0.72372 0.588759,1.23939 1.299226,1.23939 h 0.840508 v -1.11688 c 0,-0.80688 0.698131,-1.51861 1.527161,-1.51861 h 2.441747 c 0.679696,0 1.222299,-0.55964 1.222298,-1.24224 v -2.327767 c 0,-0.662504 -0.558893,-1.160161 -1.222298,-1.270731 -0.419945,-0.0699 -0.855674,-0.10166 -1.273583,-0.0997 z m -1.32202,0.749327 c 0.25251,0 0.458718,0.209577 0.458718,0.467267 0,0.256777 -0.206208,0.464414 -0.458718,0.464414 -0.253415,0 -0.458718,-0.207637 -0.458718,-0.464414 0,-0.25769 0.205303,-0.467267 0.458718,-0.467267 z"
         id="path1948" />
      <path
         style="opacity:0.5;fill:#262626;fill-opacity:1;stroke-width:0.0911736"
         d="m 99.181662,101.0578 v 1.08554 c 0,0.8416 -0.713517,1.54995 -1.527161,1.54995 h -2.441747 c -0.668835,0 -1.222298,0.57243 -1.222299,1.24224 v 2.32778 c 0,0.6625 0.57609,1.05218 1.222299,1.24224 0.773822,0.22754 1.515876,0.26866 2.441747,0 0.615437,-0.17819 1.222299,-0.53679 1.222298,-1.24224 v -0.93168 h -2.441747 v -0.31056 h 2.441747 1.222291 c 0.71047,0 0.97522,-0.49557 1.2223,-1.23939 0.25523,-0.76576 0.24437,-1.50216 0,-2.48449 -0.17558,-0.70728 -0.51092,-1.23939 -1.2223,-1.23939 z m -1.373305,5.89495 c 0.253415,0 0.458718,0.20764 0.458718,0.46442 0,0.25768 -0.205303,0.46726 -0.458718,0.46726 -0.25251,0 -0.458718,-0.20958 -0.458718,-0.46726 0,-0.25678 0.206207,-0.46442 0.458718,-0.46442 z"
         id="path1950" />
      <path
         d="m 120.31791,90.583117 a 1.1652416,1.0302972 0 0 1 1.16525,1.03028 v 18.545323 a 1.1652416,1.0302972 0 0 1 -1.16525,1.03029 H 90.021633 a 1.1652416,1.0302972 0 0 1 -1.165245,-1.03029 V 91.613397 a 1.1652416,1.0302972 0 0 1 1.165245,-1.03028 z m -30.296277,-2.06057 a 3.4957252,3.0908919 0 0 0 -3.495726,3.09085 v 18.545323 a 3.4957252,3.0908919 0 0 0 3.495726,3.09094 h 30.296277 a 3.4957252,3.0908919 0 0 0 3.49573,-3.09094 V 91.613397 a 3.4957252,3.0908919 0 0 0 -3.49573,-3.09085 z"
         id="path2"
         style="opacity:0.5;fill:#262626;fill-opacity:1;stroke-width:1.66008;stroke-miterlimit:4;stroke-dasharray:none" />
      <path
         d="m 104.43424,106.03751 c 1e-5,-0.56902 0.46129,-1.03029 1.0303,-1.03029 h 12.36357 c 1.37377,0 1.37377,2.06065 0,2.06065 h -12.36357 c -0.56904,0 -1.03033,-0.46132 -1.0303,-1.03036 z"
         id="path4"
         style="opacity:0.5;fill:#262626;fill-opacity:1;stroke-width:1.461;stroke-miterlimit:4;stroke-dasharray:none"
         sodipodi:nodetypes="ccsscc" />
      <path
         d="m 104.43424,100.88609 c 1e-5,-0.56902 0.46129,-1.030277 1.0303,-1.030277 h 12.36357 c 1.37377,0 1.37377,2.060637 0,2.060637 h -12.36357 c -0.56904,0 -1.03033,-0.46132 -1.0303,-1.03036 z"
         id="path4-89"
         style="opacity:0.5;fill:#262626;fill-opacity:1;stroke-width:1.461;stroke-miterlimit:4;stroke-dasharray:none"
         sodipodi:nodetypes="ccsscc" />
      <path
         d="m 92.055939,95.734611 c 5e-6,-0.569017 0.599441,-1.030284 1.33888,-1.030284 h 16.066511 c 1.78522,0 1.78522,2.060654 0,2.060654 H 93.394819 c -0.739475,0 -1.338926,-0.461317 -1.33888,-1.03037 z"
         id="path4-8"
         style="opacity:0.5;fill:#262626;fill-opacity:1;stroke-width:1.66548;stroke-miterlimit:4;stroke-dasharray:none"
         sodipodi:nodetypes="ssssss" />
    </g>
  </g>
</svg>
