<svg width="182" height="42" viewBox="0 0 182 42" fill="none" xmlns="http://www.w3.org/2000/svg">
<rect x="0.5" y="0.5" width="181" height="41" rx="7.5" fill="#E9F6F5" stroke="#95D7CE"/>
<path d="M0 8C0 3.58172 3.58172 0 8 0H20V42H8C3.58172 42 0 38.4183 0 34V8Z" fill="#95D7CE"/>
<path d="M7.33333 17.6C6.59695 17.6 6 17.018 6 16.3C6 15.582 6.59695 15 7.33333 15C8.06971 15 8.66667 15.582 8.66667 16.3C8.66667 17.018 8.06971 17.6 7.33333 17.6ZM7.33333 22.8C6.59695 22.8 6 22.218 6 21.5C6 20.782 6.59695 20.2 7.33333 20.2C8.06971 20.2 8.66667 20.782 8.66667 21.5C8.66667 22.218 8.06971 22.8 7.33333 22.8ZM7.33333 28C6.59695 28 6 27.418 6 26.7C6 25.982 6.59695 25.4 7.33333 25.4C8.06971 25.4 8.66667 25.982 8.66667 26.7C8.66667 27.418 8.06971 28 7.33333 28ZM12.6667 17.6C11.9303 17.6 11.3333 17.018 11.3333 16.3C11.3333 15.582 11.9303 15 12.6667 15C13.403 15 14 15.582 14 16.3C14 17.018 13.403 17.6 12.6667 17.6ZM12.6667 22.8C11.9303 22.8 11.3333 22.218 11.3333 21.5C11.3333 20.782 11.9303 20.2 12.6667 20.2C13.403 20.2 14 20.782 14 21.5C14 22.218 13.403 22.8 12.6667 22.8ZM12.6667 28C11.9303 28 11.3333 27.418 11.3333 26.7C11.3333 25.982 11.9303 25.4 12.6667 25.4C13.403 25.4 14 25.982 14 26.7C14 27.418 13.403 28 12.6667 28Z" fill="#4A7B75"/>
<rect x="34" y="11" width="132" height="4" fill="#D9D9D9"/>
<rect x="34" y="27" width="132" height="4" fill="#D9D9D9"/>
</svg>
