<svg xmlns="http://www.w3.org/2000/svg" xmlns:xlink="http://www.w3.org/1999/xlink" x="0px" y="0px" width="64px" height="64px" viewBox="0 0 64 64"><g transform="translate(0, 0)"><path d="M57.707,6.293a1,1,0,0,0-1.414,0l-9.625,9.625A21.047,21.047,0,0,0,12.1,24.3,13.929,13.929,0,0,0,1,38,14.1,14.1,0,0,0,11.137,51.449L6.293,56.293a1,1,0,1,0,1.414,1.414l50-50A1,1,0,0,0,57.707,6.293Z"></path><path d="M52.8,28.1a20.832,20.832,0,0,0-3.539-9.119L16.242,52H52.1a12.049,12.049,0,0,0,.7-23.9Z"></path></g></svg>