<svg width="100%" height="100%" viewBox="0 0 80 70" version="1.1" xmlns="http://www.w3.org/2000/svg" xmlns:xlink="http://www.w3.org/1999/xlink" xml:space="preserve" xmlnsserif="http://www.serif.com/" style="fill-rule:evenodd;clip-rule:evenodd;stroke-linejoin:round;stroke-miterlimit:2;"><g id="motion-5" serifid="motion 5"><rect x="36.611" y="13.999" width="6.665" height="30.051" style="fill:currentColor;"/><path d="M65.51,65.161l3.332,-5.772l-26.025,-15.026l-3.332,5.772l26.025,15.026Z" style="fill:currentColor;"/><path d="M10.586,59.076l3.332,5.771l26.025,-15.025l-3.332,-5.772l-26.025,15.026Z" style="fill:currentColor;"/><path d="M39.943,0.264l9.792,19.583l-19.584,0l9.792,-19.583Z" style="fill:currentColor;"/><path d="M79.197,69.673l-21.856,-1.312l9.792,-16.96l12.064,18.272Z" style="fill:currentColor;"/><path d="M0.231,68.175l12.064,-18.272l9.792,16.96l-21.856,1.312Z" style="fill:currentColor;"/><g><path d="M57.528,36.644c0,-2.689 -2.183,-4.872 -4.872,-4.872l-24.786,-0c-2.689,-0 -4.872,2.183 -4.872,4.872l0,15.438c0,2.689 2.183,4.872 4.872,4.872l24.786,0c2.689,0 4.872,-2.183 4.872,-4.872l0,-15.438Z" style="fill:#fff;"/><g><path d="M59.187,34.419c0,-3.135 -2.491,-5.682 -5.561,-5.682l-27.365,0c-3.07,0 -5.562,2.547 -5.562,5.682l0,19.888c0,3.135 2.492,5.681 5.562,5.681l27.365,0c3.07,0 5.561,-2.546 5.561,-5.681l0,-19.888Zm-3.675,17.839l0.058,-17.839c-0,-1.096 -0.871,-1.986 -1.944,-1.986l-27.365,-0c-1.074,-0 -1.944,0.89 -1.944,1.986l-0,17.34l0.005,-0c0,1.296 1.032,2.351 2.303,2.351l26.638,-0c1.103,-0 2.024,-0.794 2.249,-1.852Z" style="fill:currentColor;"/><path d="M51.597,43.091c0,-0.7 -0.555,-1.268 -1.24,-1.268l-3.756,-0c-0.685,-0 -1.24,0.568 -1.24,1.268l-0,3.836c-0,0.7 0.555,1.269 1.24,1.269l3.756,-0c0.685,-0 1.24,-0.569 1.24,-1.269l0,-3.836Zm-17.027,-0.153c-0,-0.616 -0.488,-1.115 -1.09,-1.115l-4.055,-0c-0.602,-0 -1.092,0.499 -1.092,1.115l0,4.143c0,0.615 0.49,1.115 1.092,1.115l4.055,-0c0.602,-0 1.09,-0.5 1.09,-1.115l-0,-4.143Z" style="fill:currentColor;"/><path d="M24.317,32.433l14.661,-0l-5.47,5.589l-0,-5.589l-9.191,9.39l-0,-9.39Zm17.396,-0l-2.735,2.794l0,-2.794l2.735,-0Z" style="fill:currentColor;"/></g></g></g></svg>