<svg width="100%" height="100%" viewBox="0 0 72 63" version="1.1" xmlns="http://www.w3.org/2000/svg" xmlns:xlink="http://www.w3.org/1999/xlink" xml:space="preserve" xmlnsserif="http://www.serif.com/" style="fill-rule:evenodd;clip-rule:evenodd;stroke-linecap:round;stroke-linejoin:round;stroke-miterlimit:1.5;"><g id="motion-10" serifid="motion 10"><path d="M57.321,14.902c-1.034,-3.861 -5.009,-6.155 -8.87,-5.121l-34.459,9.234c-3.861,1.034 -6.156,5.009 -5.121,8.87l5.846,21.819c1.035,3.861 5.009,6.156 8.87,5.121l34.46,-9.233c3.861,-1.034 6.155,-5.009 5.121,-8.87l-5.847,-21.82Z" style="fill:none;stroke:#7bcbc2;stroke-width:4px;"/><path d="M39.826,4.852c-2.826,-2.826 -7.416,-2.826 -10.242,0l-25.226,25.226c-2.827,2.827 -2.827,7.416 -0,10.242l15.973,15.974c2.826,2.826 7.416,2.826 10.242,-0l25.226,-25.226c2.827,-2.827 2.827,-7.416 0,-10.243l-15.973,-15.973Z" style="fill:none;stroke:#7bcbc2;stroke-width:4px;"/><path d="M68.823,28.86c0,-3.82 -3.101,-6.922 -6.921,-6.922l-36.275,0c-3.82,0 -6.921,3.102 -6.921,6.922l-0,21.933c-0,3.82 3.101,6.921 6.921,6.921l36.275,0c3.82,0 6.921,-3.101 6.921,-6.921l0,-21.933Z" style="fill:#fff;"/><g><path d="M71.231,25.699c-0,-4.454 -3.616,-8.072 -8.072,-8.072l-39.718,0c-4.456,0 -8.072,3.618 -8.072,8.072l-0,28.254c-0,4.454 3.616,8.072 8.072,8.072l39.718,0c4.456,0 8.072,-3.618 8.072,-8.072l-0,-28.254Zm-5.334,25.344l0.084,-25.344c-0,-1.558 -1.264,-2.822 -2.822,-2.822l-39.718,0c-1.558,0 -2.822,1.264 -2.822,2.822l-0,24.634l0.008,0c-0,1.842 1.498,3.34 3.342,3.34l38.664,0c1.6,0 2.938,-1.128 3.264,-2.63Z" style="fill:currentColor;"/><path d="M60.215,38.019c-0,-0.994 -0.806,-1.802 -1.8,-1.802l-5.452,0c-0.994,0 -1.8,0.808 -1.8,1.802l-0,5.45c-0,0.994 0.806,1.802 1.8,1.802l5.452,0c0.994,0 1.8,-0.808 1.8,-1.802l-0,-5.45Zm-24.714,-0.218c-0,-0.874 -0.708,-1.584 -1.582,-1.584l-5.886,0c-0.874,0 -1.584,0.71 -1.584,1.584l-0,5.886c-0,0.874 0.71,1.584 1.584,1.584l5.886,0c0.874,0 1.582,-0.71 1.582,-1.584l-0,-5.886Z" style="fill:currentColor;"/><path d="M20.619,22.877l21.28,0l-7.94,7.94l-0,-7.94l-13.34,13.34l-0,-13.34Zm25.25,0l-3.97,3.97l-0,-3.97l3.97,0Z" style="fill:currentColor;"/></g></g></svg>