<?xml version="1.0" encoding="utf-8"?>
<!-- Generator: Adobe Illustrator 20.1.0, SVG Export Plug-In . SVG Version: 6.00 Build 0)  -->
<svg version="1.1" id="Layer_1" xmlns="http://www.w3.org/2000/svg" xmlns:xlink="http://www.w3.org/1999/xlink" x="0px" y="0px"
	 viewBox="0 1 46 28.7" style="enable-background:new 0 0 166.8 28.7;" xml:space="preserve">
<g>
	<path d="M32.5,18c1.5,0,2.6-1.2,2.6-2.6s-1.2-2.6-2.6-2.6c-1.5,0-2.6,1.2-2.6,2.6S31.1,18,32.5,18"/>
	<path d="M13.3,12.8c-1.5,0-2.6,1.2-2.6,2.6s1.2,2.6,2.6,2.6c1.4,0,2.6-1.2,2.6-2.6S14.7,12.8,13.3,12.8"/>
	<path d="M13.3,7.6c-4.3,0-7.8,3.5-7.8,7.8c0,4.3,3.5,7.8,7.8,7.8h19.5c4.3,0,7.8-3.5,7.8-7.8c0-4.3-3.5-7.8-7.8-7.8
		H13.3 M32.8,28.4H13.3c-7.2,0-13-5.8-13-13s5.8-13,13-13h19.5c7.2,0,13,5.8,13,13S39.9,28.4,32.8,28.4"/>
</g>
</svg>
