<svg viewBox="0 0 28 23" xmlns="http://www.w3.org/2000/svg" xml:space="preserve" style="fill-rule:evenodd;clip-rule:evenodd;stroke-linejoin:round;stroke-miterlimit:2">
  <path d="M27.931 4.112A4.038 4.038 0 0 0 23.895.076H4.036A4.038 4.038 0 0 0 0 4.112v14.127a4.038 4.038 0 0 0 4.036 4.036h19.859a4.038 4.038 0 0 0 4.036-4.036V4.112Zm-2.667 12.672.042-12.672c0-.779-.632-1.411-1.411-1.411H4.036c-.779 0-1.411.632-1.411 1.411v12.317h.004c0 .921.749 1.67 1.671 1.67h19.332c.8 0 1.469-.564 1.632-1.315Z" style="fill:currentColor"/>
  <path d="M22.423 10.272a.9.9 0 0 0-.9-.901h-2.726a.9.9 0 0 0-.9.901v2.725a.9.9 0 0 0 .9.901h2.726a.9.9 0 0 0 .9-.901v-2.725Zm-12.357-.109a.792.792 0 0 0-.791-.792H6.332a.793.793 0 0 0-.792.792v2.943c0 .437.355.792.792.792h2.943a.792.792 0 0 0 .791-.792v-2.943ZM2.625 2.701h10.64l-3.97 3.97v-3.97l-6.67 6.67v-6.67Zm12.625 0-1.985 1.985V2.701h1.985Z" style="fill:currentColor"/>
</svg>