<?xml version="1.0" encoding="UTF-8" standalone="no"?>
<!DOCTYPE svg PUBLIC "-//W3C//DTD SVG 1.1//EN" "http://www.w3.org/Graphics/SVG/1.1/DTD/svg11.dtd">
<svg width="100%" height="100%" viewBox="0 0 492 234" version="1.1" xmlns="http://www.w3.org/2000/svg" xmlns:xlink="http://www.w3.org/1999/xlink" xml:space="preserve" style="fill-rule:evenodd;clip-rule:evenodd;stroke-linejoin:round;stroke-miterlimit:2;">
    <g transform="matrix(4.16667,0,0,4.16667,0,0)">
        <path d="M58.852,27.901L54.927,27.901L54.927,27.944L58.852,27.944L58.852,27.901Z" style="fill:white;fill-rule:nonzero;"/>
        <path d="M77.002,44.014C75.739,44.014 74.712,42.973 74.712,41.694C74.712,40.432 75.739,39.405 77.002,39.405C78.281,39.405 79.321,40.432 79.321,41.694C79.321,42.973 78.281,44.014 77.002,44.014Z" style="fill:white;fill-rule:nonzero;"/>
        <path d="M66.926,16.97C68.455,16.97 69.691,15.73 69.691,14.204C69.691,12.678 68.455,11.439 66.926,11.439C65.4,11.439 64.161,12.678 64.161,14.204C64.161,15.73 65.4,16.97 66.926,16.97Z" style="fill:white;fill-rule:nonzero;"/>
        <path d="M46.619,11.44C45.092,11.44 43.853,12.678 43.853,14.205C43.853,15.731 45.092,16.97 46.619,16.97C48.145,16.97 49.383,15.731 49.383,14.205C49.383,12.678 48.145,11.44 46.619,11.44Z" style="fill:white;fill-rule:nonzero;"/>
        <path d="M67.162,27.901L46.618,27.901C39.067,27.901 32.923,21.757 32.923,14.205C32.923,6.653 39.067,0.509 46.618,0.509L67.162,0.509C74.715,0.509 80.859,6.653 80.859,14.205C80.859,21.757 74.715,27.901 67.162,27.901ZM46.618,5.987C42.088,5.987 38.401,9.673 38.401,14.205C38.401,18.736 42.088,22.423 46.618,22.423L67.162,22.423C71.694,22.423 75.38,18.736 75.38,14.205C75.38,9.673 71.694,5.987 67.162,5.987L46.618,5.987Z" style="fill:white;fill-rule:nonzero;"/>
        <path d="M21.254,55.529L17.938,55.529L17.938,46.273C17.938,44.207 16.762,42.707 15.142,42.707C13.478,42.707 12.315,44.173 12.315,46.273L12.315,55.529L8.968,55.529L8.968,46.273C8.968,43.931 7.546,42.707 6.141,42.707C4.477,42.707 3.314,44.173 3.314,46.273L3.314,55.529L0,55.529L0,46.427C0,42.285 2.525,39.391 6.141,39.391C7.859,39.391 9.324,40.096 10.602,41.541C11.824,40.131 13.38,39.391 15.142,39.391C18.74,39.391 21.254,42.285 21.254,46.427L21.254,55.529Z" style="fill:white;fill-rule:nonzero;"/>
        <path d="M25.628,37.501C24.43,37.501 23.492,36.549 23.492,35.335C23.492,34.118 24.41,33.2 25.628,33.2C26.842,33.2 27.794,34.137 27.794,35.335C27.794,36.53 26.822,37.501 25.628,37.501ZM27.301,55.529L23.955,55.529L23.955,39.793L27.301,39.793L27.301,55.529Z" style="fill:white;fill-rule:nonzero;"/>
        <path d="M37.915,55.929C35.745,55.929 33.704,55.063 32.167,53.491C30.662,51.987 29.831,49.914 29.831,47.661C29.831,45.407 30.662,43.334 32.172,41.824C33.683,40.28 35.778,39.391 37.915,39.391C40.267,39.391 42.233,40.18 43.756,41.737L44.184,42.174L41.795,44.611L41.35,44.211C40.218,43.192 39.158,42.738 37.915,42.738C35.252,42.738 33.085,44.946 33.085,47.661C33.085,50.392 35.252,52.615 37.915,52.615C39.169,52.615 40.259,52.148 41.344,51.147L41.772,50.751L44.231,53.063L43.729,53.517C41.962,55.118 40.006,55.929 37.915,55.929Z" style="fill:white;fill-rule:nonzero;"/>
        <path d="M50.032,55.529L46.502,55.529L46.502,47.661C46.502,42.614 48.685,40.188 53.579,39.795L54.255,39.74L54.255,43.042L53.699,43.103C51.026,43.401 50.032,44.586 50.032,47.475L50.032,55.529Z" style="fill:white;fill-rule:nonzero;"/>
        <path d="M63.414,42.707C60.852,42.707 58.768,44.929 58.768,47.661C58.768,50.376 60.852,52.584 63.414,52.584C66.036,52.584 68.09,50.422 68.09,47.661C68.09,44.929 65.992,42.707 63.414,42.707ZM63.445,55.929C61.276,55.929 59.235,55.063 57.696,53.492C56.171,51.932 55.33,49.862 55.33,47.661C55.33,45.46 56.17,43.389 57.696,41.829C59.236,40.257 61.277,39.391 63.445,39.391C65.592,39.391 67.623,40.257 69.162,41.829C70.687,43.353 71.529,45.426 71.529,47.661C71.529,49.894 70.687,51.967 69.157,53.497C67.624,55.063 65.593,55.929 63.445,55.929Z" style="fill:white;fill-rule:nonzero;"/>
        <path d="M77.002,55.529C75.739,55.529 74.712,54.501 74.712,53.24C74.712,51.961 75.739,50.92 77.002,50.92C78.281,50.92 79.321,51.961 79.321,53.24C79.321,54.501 78.281,55.529 77.002,55.529Z" style="fill:white;fill-rule:nonzero;"/>
        <path d="M90.565,42.738C87.902,42.738 85.735,44.96 85.735,47.691C85.735,50.452 87.857,52.615 90.565,52.615C93.229,52.615 95.396,50.406 95.396,47.691C95.396,44.96 93.229,42.738 90.565,42.738ZM90.565,55.929C85.788,55.929 82.451,52.213 82.451,46.89C82.451,46.564 82.452,46.207 82.484,45.848L82.481,32.302L85.797,32.302L85.797,40.942C87.227,39.922 88.798,39.422 90.565,39.422C92.734,39.422 94.764,40.277 96.282,41.829C97.809,43.389 98.649,45.46 98.649,47.661C98.649,49.894 97.807,51.967 96.278,53.497C94.745,55.063 92.715,55.929 90.565,55.929Z" style="fill:white;fill-rule:nonzero;"/>
        <path d="M103.188,37.501C101.99,37.501 101.052,36.549 101.052,35.335C101.052,34.118 101.97,33.2 103.188,33.2C104.402,33.2 105.354,34.137 105.354,35.335C105.354,36.53 104.382,37.501 103.188,37.501ZM104.86,55.529L101.515,55.529L101.515,39.793L104.86,39.793L104.86,55.529Z" style="fill:white;fill-rule:nonzero;"/>
        <path d="M117.38,56L116.636,55.856C111.705,54.902 109.872,52.539 109.872,47.136L109.872,43.2L108.424,43.2L108.424,40.008L109.872,40.008L109.872,36.525L113.249,36.525L113.249,40.008L117.38,40.008L117.38,43.2L113.249,43.2L113.249,47.661C113.249,50.608 114.358,52.081 116.843,52.435L117.38,52.512L117.38,56Z" style="fill:white;fill-rule:nonzero;"/>
    </g>
</svg>
